<svg xmlns="http://www.w3.org/2000/svg" width="20" height="20" viewBox="0 0 20 20" fill="none">
    <path fill-rule="evenodd" clip-rule="evenodd"
        d="M17.4286 4.18123C17.2897 4.18123 17.1757 4.2228 17.0753 4.3017C16.8242 4.49918 16.4657 4.44881 16.2746 4.18919C16.0835 3.92958 16.1323 3.55903 16.3834 3.36155C16.6846 3.12476 17.0422 3 17.4286 3C17.7442 3 18 3.26443 18 3.59062C18 3.9168 17.7442 4.18123 17.4286 4.18123ZM16.1559 4.59845C16.467 4.65353 16.6759 4.95881 16.6226 5.28031C16.5898 5.47867 16.5714 5.70319 16.5714 5.95308V5.96311C16.5714 6.29447 16.5714 6.64912 16.5496 6.98926C16.5286 7.31473 16.2564 7.56104 15.9415 7.5394C15.6266 7.51777 15.3883 7.23639 15.4092 6.91092C15.4284 6.61349 15.4286 6.29537 15.4286 5.95308C15.4286 5.64437 15.4512 5.35256 15.4962 5.08085C15.5495 4.75935 15.8448 4.54337 16.1559 4.59845ZM10.9622 6.51338C10.7992 6.45722 10.6407 6.44169 10.4933 6.45725C10.1793 6.49036 9.89882 6.25414 9.86679 5.92963C9.83476 5.60513 10.0633 5.31523 10.3773 5.28212C10.6859 5.24957 11.007 5.28371 11.3236 5.39277C11.828 5.56657 12.1974 5.86213 12.4826 6.19737C12.6911 6.44231 12.6679 6.8155 12.4309 7.03092C12.1939 7.24633 11.8329 7.2224 11.6245 6.97746C11.4482 6.77028 11.2424 6.60992 10.9622 6.51338ZM9.56245 6.11837C9.82529 6.29892 9.89675 6.66551 9.72207 6.93717C9.56763 7.17736 9.49346 7.50276 9.58746 7.88798C9.66464 8.20426 9.47914 8.52533 9.17314 8.60511C8.86713 8.68488 8.5565 8.49315 8.47931 8.17687C8.30745 7.47258 8.4353 6.80427 8.77025 6.28335C8.94493 6.01169 9.29961 5.93783 9.56245 6.11837ZM12.8714 8.08253C13.0921 7.8494 13.4539 7.84535 13.6795 8.07348C13.8252 8.22083 13.9954 8.31554 14.2857 8.31554C14.6081 8.31554 14.8074 8.25177 14.9335 8.17724C15.2074 8.01531 15.5565 8.11358 15.7132 8.39674C15.8698 8.67989 15.7748 9.04071 15.5008 9.20264C15.1594 9.40443 14.7516 9.49677 14.2857 9.49677C13.6797 9.49677 13.227 9.26853 12.8802 8.91774C12.6546 8.6896 12.6507 8.31567 12.8714 8.08253ZM9.35894 8.86638C9.58813 8.64214 9.9498 8.6524 10.1668 8.88929C10.2976 9.03217 10.4531 9.17839 10.6366 9.32587C10.9334 9.56454 11.2146 9.82738 11.4776 10.1075C11.6974 10.3416 11.6919 10.7155 11.4654 10.9426C11.2389 11.1698 10.8772 11.1642 10.6574 10.9301C10.429 10.6867 10.1871 10.461 9.93492 10.2583C9.7097 10.0772 9.51065 9.89118 9.33677 9.70132C9.11982 9.46443 9.12974 9.09061 9.35894 8.86638ZM3.5417 11.0423C3.1554 10.9487 2.83298 10.9441 2.64236 10.9687C2.32921 11.0092 2.04362 10.7796 2.00447 10.4559C1.96533 10.1323 2.18746 9.83708 2.50061 9.79663C2.83903 9.7529 3.29819 9.77009 3.80253 9.89229C4.1098 9.96674 4.30049 10.2845 4.22846 10.6021C4.15643 10.9197 3.84896 11.1168 3.5417 11.0423ZM5.1828 11.1467C5.40253 10.9125 5.7643 10.9068 5.99083 11.1339C6.27059 11.4144 6.53424 11.7464 6.77033 12.1368C6.93699 12.4124 7.11923 12.704 7.31417 13.0017C7.49105 13.2718 7.42256 13.639 7.16119 13.8218C6.89983 14.0047 6.54457 13.9339 6.36769 13.6637C6.16404 13.3527 5.97425 13.049 5.80119 12.7629C5.61389 12.4531 5.40842 12.1957 5.19509 11.9818C4.96857 11.7547 4.96306 11.3808 5.1828 11.1467ZM12.0458 11.7403C12.3192 11.5774 12.6686 11.6745 12.8262 11.9571C13.2217 12.6666 13.5165 13.4131 13.6729 14.1332C13.742 14.4515 13.5484 14.7674 13.2404 14.8388C12.9325 14.9102 12.6268 14.7101 12.5577 14.3918C12.4305 13.8057 12.1835 13.1702 11.836 12.5469C11.6784 12.2643 11.7723 11.9032 12.0458 11.7403ZM7.69344 14.5679C7.93585 14.359 8.29618 14.3928 8.49825 14.6434C8.9383 15.189 9.3952 15.6798 9.84896 16.0586C10.0945 16.2635 10.1328 16.6354 9.93448 16.8892C9.7362 17.1429 9.37642 17.1825 9.1309 16.9776C8.59962 16.5341 8.08946 15.9813 7.62038 15.3997C7.41831 15.1491 7.45102 14.7767 7.69344 14.5679ZM13.2477 15.8638C13.5309 16.0078 13.6476 16.3617 13.5083 16.6544C13.306 17.0794 12.9945 17.4364 12.5692 17.6876C12.1518 17.9341 11.7094 18.0266 11.2651 17.9935C10.9503 17.9701 10.7135 17.6873 10.7362 17.362C10.7589 17.0367 11.0324 16.7919 11.3472 16.8154C11.5754 16.8323 11.7904 16.7871 12.0022 16.662C12.2221 16.5321 12.3774 16.3544 12.4828 16.133C12.6221 15.8404 12.9646 15.7198 13.2477 15.8638Z"
        fill="white" />
</svg>