<svg xmlns="http://www.w3.org/2000/svg" width="20" height="20" viewBox="0 0 20 20" fill="none">
    <g clip-path="url(#clip0_1076_152)">
        <path fill-rule="evenodd" clip-rule="evenodd"
            d="M16.875 4.53524C16.7026 4.81512 16.5714 5.28299 16.5714 5.95309C16.5714 5.97474 16.5714 5.99656 16.5715 6.01852C16.5717 6.7063 16.572 7.54182 16.3163 8.20269C16.1754 8.56676 15.9484 8.90629 15.5876 9.14802C15.2304 9.3873 14.7927 9.49679 14.2857 9.49679C13.7085 9.49679 13.2675 9.28961 12.9243 8.96118C12.6073 8.6578 12.3896 8.26321 12.2148 7.93794C12.2072 7.92391 12.1997 7.90995 12.1923 7.89608C11.822 7.20673 11.5602 6.71942 10.9622 6.5134C10.3933 6.31739 9.83938 6.60941 9.6324 7.10859C9.4458 7.5586 9.4827 8.39831 10.6366 9.3259C12.0155 10.4344 13.0833 12.0872 13.5462 13.642C13.9928 15.1423 13.9423 16.8767 12.5692 17.6876C11.8931 18.087 11.177 18.0708 10.5115 17.8227C9.86368 17.5812 9.24409 17.1157 8.68157 16.573C7.55421 15.4855 6.52249 13.9557 5.80119 12.7629C4.80126 11.1093 3.23445 10.8923 2.64236 10.9688C2.32921 11.0092 2.04362 10.7796 2.00447 10.456C1.96533 10.1323 2.18746 9.83711 2.50061 9.79666C3.43232 9.67628 5.48455 10.0105 6.77033 12.1368C7.47759 13.3065 8.44587 14.7298 9.46136 15.7095C9.97026 16.2004 10.4578 16.547 10.8993 16.7115C11.3231 16.8695 11.6784 16.8533 12.0022 16.662C12.6292 16.2917 12.8644 15.3684 12.4539 13.9894C12.0596 12.6649 11.1274 11.2169 9.93492 10.2583C8.51737 9.11874 8.12569 7.74363 8.58195 6.64328C9.01783 5.59208 10.1782 4.99818 11.3236 5.39278C12.3564 5.74862 12.8205 6.6234 13.1477 7.24026C13.1704 7.28292 13.1924 7.32435 13.2138 7.36429C13.3961 7.70346 13.5356 7.93641 13.7007 8.09444C13.8397 8.22743 14.0058 8.31556 14.2857 8.31556C14.6359 8.31556 14.8411 8.24048 14.966 8.15678C15.0873 8.07551 15.1818 7.95362 15.2552 7.76399C15.4198 7.33856 15.4286 6.72996 15.4286 5.95309C15.4286 5.14664 15.5831 4.43327 15.9108 3.90106C16.2509 3.34865 16.7786 3 17.4286 3C17.7442 3 18 3.26443 18 3.59062C18 3.91681 17.7442 4.18124 17.4286 4.18124C17.2214 4.18124 17.0348 4.27555 16.875 4.53524Z"
            fill="white" />
    </g>
    <defs>
        <clipPath id="clip0_1076_152">
            <rect width="20" height="20" fill="white" />
        </clipPath>
    </defs>
</svg>